<svg xmlns="http://www.w3.org/2000/svg" width="32" height="32" viewBox="0 0 32 32" fill="none">
  <defs>
    <linearGradient id="goldFill" x1="5" y1="3" x2="24" y2="29" gradientUnits="userSpaceOnUse">
      <stop offset="0" stop-color="#FFF6D1"/>
      <stop offset="0.32" stop-color="#F9D87A"/>
      <stop offset="0.66" stop-color="#D9A33B"/>
      <stop offset="1" stop-color="#B5761D"/>
    </linearGradient>
    <linearGradient id="goldEdge" x1="6" y1="4" x2="20" y2="25" gradientUnits="userSpaceOnUse">
      <stop offset="0" stop-color="#FFF9E5"/>
      <stop offset="1" stop-color="#CB8C2F"/>
    </linearGradient>
    <filter id="softGlow" x="-6" y="-6" width="44" height="44" filterUnits="userSpaceOnUse">
      <feGaussianBlur stdDeviation="1.2" result="blur"/>
      <feColorMatrix
        in="blur"
        type="matrix"
        values="1 0 0 0 0.98  0 1 0 0 0.79  0 0 1 0 0.24  0 0 0 0.62 0"
      />
    </filter>
  </defs>
  <path d="M4 3L24 15L15.2 16.2L19.5 27.5L13.5 29.6L9.4 18.4L4 22V3Z" fill="url(#goldFill)"/>
  <path d="M4.9 4.6L21.6 15L14 16.1L18 26.8L14.1 28.2L10.3 17.6L5.1 20.8V4.6H4.9Z" fill="url(#goldEdge)" opacity="0.68"/>
  <path d="M4 3L24 15L15.2 16.2L19.5 27.5L13.5 29.6L9.4 18.4L4 22V3Z" stroke="#8A5814" stroke-width="0.9"/>
  <path d="M7.1 8.4L17.5 14.8L12.6 15.5L15.9 24.5L13.9 25.2L10.7 16.3L7.1 18.6V8.4Z" fill="#FFF9E3" opacity="0.28"/>
  <path
    d="M6.7 6.4L20.8 15.1"
    stroke="#FFF5CD"
    stroke-width="1.1"
    stroke-linecap="round"
    opacity="0.6"
    filter="url(#softGlow)"
  />
</svg>
